:FULLY-SPECIFIED
:FORCE-ALL-JOINTS-BE-3DOF
:DEGREES
306
root -1.30244 15.4192 -36.2103 27.5506 70.7618 23.0961
lfemur -24.4634 13.0337 -24.876
ltibia 57.8516 0 0
lfoot -23.0414 26.6262 0
ltoes -10.0224 0 0
rfemur -42.7029 -5.45058 8.00805
rtibia 99.6202 0 0
rfoot 2.6681 -7.9015 0
rtoes 3.10876 0 0
lowerback 16.5003 -2.18824 -10.0435
upperback -1.34427 -4.71112 1.93464
thorax -9.80514 -1.63957 8.98798
lowerneck -7.13672 3.47695 0.920646
upperneck 2.97766 4.80794 -4.69713
head 2.33411 2.27651 -1.4586
lclavicle -3.45885e-14 -7.95139e-16 0
lhumerus 18.8272 -15.6718 66.7643
lradius 28.5828 0 0
lwrist -42.1477 0 0
lhand -20.4715 29.5167 0
lfingers 7.12502 0 0
lthumb 5.88459 59.415 0
rclavicle -3.45885e-14 -7.95139e-16 0
rhumerus -61.0739 6.39287 -89.1735
rradius 97.5763 0 0
rwrist -66.5616 0 0
rhand -5.30554 -35.5383 0
rfingers 7.12502 0 0
rthumb 20.4998 -64.476 0
307
root -1.13271 15.4109 -36.1673 28.8849 71.9902 24.8942
lfemur -23.5545 12.1873 -24.8942
ltibia 57.4193 0 0
lfoot -23.1015 26.5499 0
ltoes -10.2644 0 0
rfemur -43.5623 -5.15651 7.99725
rtibia 99.7917 0 0
rfoot 2.98007 -6.88722 0
rtoes 3.63678 0 0
lowerback 16.7629 -2.21745 -10.47
upperback -1.24902 -4.84927 1.87674
thorax -9.83413 -1.68211 9.20658
lowerneck -7.10557 3.20447 0.733476
upperneck 2.9834 4.43938 -4.42343
head 2.3095 2.09832 -1.35426
lclavicle -3.60534e-14 -2.8541e-15 0
lhumerus 19.3878 -16.8023 67.2025
lradius 28.4289 0 0
lwrist -41.7017 0 0
lhand -20.5291 29.2819 0
lfingers 7.12502 0 0
lthumb 5.82896 59.1808 0
rclavicle -3.60534e-14 -2.8541e-15 0
rhumerus -59.6452 6.82217 -88.5287
rradius 98.1735 0 0
rwrist -65.9241 0 0
rhand -5.40123 -35.0102 0
rfingers 7.12502 0 0
rthumb 20.4871 -64.3424 0
308
root -0.962985 15.4027 -36.1243 29.6272 72.6383 25.892
lfemur -23.0428 11.7376 -24.8915
ltibia 57.1843 0 0
lfoot -23.1434 26.5148 0
ltoes -10.3784 0 0
rfemur -44.0272 -5.01424 8.00774
rtibia 99.7856 0 0
rfoot 3.10829 -6.3392 0
rtoes 3.85714 0 0
lowerback 16.9058 -2.2254 -10.687
upperback -1.19787 -4.91146 1.84681
thorax -9.85268 -1.69968 9.31589
lowerneck -7.08375 3.05406 0.628676
upperneck 2.99251 4.23611 -4.26878
head 2.29775 2.00008 -1.29523
lclavicle -3.67199e-14 -3.91417e-15 0
lhumerus 19.6662 -17.4624 67.4575
lradius 28.3999 0 0
lwrist -41.4086 0 0
lhand -20.572 29.1897 0
lfingers 7.12502 0 0
lthumb 5.7875 59.0891 0
rclavicle -3.67199e-14 -3.91417e-15 0
rhumerus -58.7807 7.11567 -88.1537
rradius 98.5541 0 0
rwrist -65.5227 0 0
rhand -5.26609 -34.6308 0
rfingers 7.12502 0 0
rthumb 20.6376 -64.0128 0
309
root -0.793257 15.3944 -36.0813 29.9671 72.8484 26.3424
lfemur -22.794 11.5837 -24.8587
ltibia 57.09 0 0
lfoot -23.1835 26.5167 0
ltoes -10.38 0 0
rfemur -44.2078 -5.00138 8.053
rtibia 99.5339 0 0
rfoot 3.05589 -6.12807 0
rtoes 3.77816 0 0
lowerback 16.9635 -2.20872 -10.7367
upperback -1.17898 -4.90395 1.83867
thorax -9.86713 -1.69279 9.3358
lowerneck -7.06276 2.9881 0.579035
upperneck 3.0112 4.14736 -4.19209
head 2.29712 1.95728 -1.2658
lclavicle -3.66615e-14 -4.19031e-15 0
lhumerus 19.7119 -17.8412 67.602
lradius 28.5256 0 0
lwrist -41.1642 0 0
lhand -20.6184 29.2416 0
lfingers 7.12502 0 0
lthumb 5.74274 59.1417 0
rclavicle -3.66615e-14 -4.19031e-15 0
rhumerus -58.2141 7.38407 -87.9422
rradius 98.8469 0 0
rwrist -65.2241 0 0
rhand -4.74244 -34.2474 0
rfingers 7.12502 0 0
rthumb 21.0927 -63.2362 0
310
root -0.623529 15.3862 -36.0382 30.0942 72.7631 26.4986
lfemur -22.6732 11.6245 -24.7868
ltibia 57.0801 0 0
lfoot -23.238 26.5515 0
ltoes -10.2848 0 0
rfemur -44.2142 -5.09554 8.14648
rtibia 98.9686 0 0
rfoot 2.82599 -6.12446 0
rtoes 3.40816 0 0
lowerback 16.9704 -2.16401 -10.6611
upperback -1.18049 -4.83306 1.84617
thorax -9.88379 -1.66192 9.2862
lowerneck -7.03408 2.96892 0.557341
upperneck 3.04566 4.12237 -4.1523
head 2.3059 1.94539 -1.25024
lclavicle -3.59513e-14 -3.89752e-15 0
lhumerus 19.5742 -18.1279 67.7085
lradius 28.8355 0 0
lwrist -40.8643 0 0
lhand -20.6862 29.4392 0
lfingers 7.12502 0 0
lthumb 5.67723 59.3405 0
rclavicle -3.59513e-14 -3.89752e-15 0
rhumerus -57.6788 7.73809 -87.7877
rradius 99.1807 0 0
rwrist -64.8954 0 0
rhand -3.67264 -33.7069 0
rfingers 7.12502 0 0
rthumb 21.9938 -61.7613 0
311
root -0.453802 15.3779 -35.9952 30.1982 72.5248 26.6139
lfemur -22.546 11.7592 -24.6667
ltibia 57.0979 0 0
lfoot -23.3232 26.6149 0
ltoes -10.1085 0 0
rfemur -44.1566 -5.27431 8.30166
rtibia 98.0219 0 0
rfoot 2.42171 -6.19899 0
rtoes 2.75547 0 0
lowerback 16.961 -2.08789 -10.5026
upperback -1.19054 -4.70506 1.86315
thorax -9.909 -1.6076 9.18698
lowerneck -6.98921 2.95889 0.536385
upperneck 3.10209 4.11036 -4.10833
head 2.32234 1.93991 -1.23285
lclavicle -3.46627e-14 -3.25076e-15 0
lhumerus 19.3023 -18.5113 67.8496
lradius 29.3593 0 0
lwrist -40.4045 0 0
lhand -20.7936 29.784 0
lfingers 7.12502 0 0
lthumb 5.5735 59.6872 0
rclavicle -3.46627e-14 -3.25076e-15 0
rhumerus -56.9086 8.28844 -87.5839
rradius 99.6844 0 0
rwrist -64.4033 0 0
rhand -1.89901 -32.8567 0
rfingers 7.12502 0 0
rthumb 23.4823 -59.3372 0
